<svg width="20" height="20" viewBox="0 0 20 20" fill="none" xmlns="http://www.w3.org/2000/svg">
<g clip-path="url(#clip0_7_115)">
<mask id="mask0_7_115" style="mask-type:luminance" maskUnits="userSpaceOnUse" x="0" y="0" width="20" height="20">
<path d="M20 0H0V20H20V0Z" fill="white"/>
</mask>
<g mask="url(#mask0_7_115)">
<path d="M20 0H0V20H20V0Z" fill="white" fill-opacity="0.01"/>
<path fill-rule="evenodd" clip-rule="evenodd" d="M4.32304 14.3672C4.36141 14.3557 4.39862 14.3412 4.43468 14.3237C4.47073 14.3063 4.50516 14.286 4.53797 14.263C4.57077 14.24 4.60154 14.2146 4.63028 14.1867C4.659 14.1587 4.68533 14.1287 4.70925 14.0966C4.73316 14.0644 4.75436 14.0306 4.77286 13.995C4.79135 13.9595 4.80689 13.9227 4.81949 13.8847C4.83209 13.8466 4.84158 13.8078 4.84796 13.7683C4.85433 13.7287 4.85752 13.6889 4.85752 13.6489C4.85752 13.5996 4.85271 13.5508 4.84311 13.5025C4.8335 13.4542 4.81927 13.4073 4.80043 13.3619C4.78159 13.3164 4.75849 13.2731 4.73113 13.2322C4.70377 13.1912 4.67267 13.1534 4.63785 13.1185C4.60303 13.0837 4.56514 13.0526 4.5242 13.0253C4.48325 12.9979 4.44003 12.9748 4.39454 12.956C4.34904 12.9371 4.30214 12.9229 4.25384 12.9133C4.20554 12.9037 4.15676 12.8989 4.10752 12.8989C4.03414 12.8989 3.9623 12.9094 3.89201 12.9305C1.9085 13.5256 0.916747 14.3543 0.916748 15.4166C0.916748 16.479 1.9085 17.3077 3.89202 17.9028C5.58949 18.412 7.62551 18.6666 10.0001 18.6666C12.3747 18.6666 14.4107 18.412 16.1081 17.9028C18.0917 17.3077 19.0834 16.479 19.0834 15.4166C19.0834 14.3543 18.0917 13.5256 16.1081 12.9305C16.0379 12.9094 15.966 12.8989 15.8926 12.8989C15.8434 12.8989 15.7946 12.9037 15.7463 12.9133C15.698 12.9229 15.6511 12.9371 15.6056 12.956C15.5601 12.9748 15.5169 12.9979 15.4759 13.0253C15.435 13.0526 15.3971 13.0837 15.3622 13.1185C15.3274 13.1534 15.2964 13.1912 15.269 13.2322C15.2416 13.2731 15.2185 13.3164 15.1997 13.3619C15.1809 13.4073 15.1666 13.4542 15.157 13.5025C15.1474 13.5508 15.1426 13.5996 15.1426 13.6489C15.1426 13.6889 15.1458 13.7287 15.1521 13.7683C15.1585 13.8078 15.168 13.8466 15.1806 13.8847C15.1932 13.9227 15.2088 13.9595 15.2272 13.995C15.2458 14.0306 15.267 14.0644 15.2909 14.0966C15.3148 14.1287 15.3411 14.1587 15.3698 14.1867C15.3986 14.2146 15.4293 14.2401 15.4621 14.263C15.4949 14.286 15.5294 14.3063 15.5654 14.3238C15.6015 14.3412 15.6387 14.3557 15.6771 14.3672L15.6796 14.368C16.3687 14.5749 16.8904 14.804 17.2446 15.0553C17.4705 15.2155 17.5834 15.3359 17.5834 15.4166C17.5834 15.4973 17.4705 15.6178 17.2446 15.778C16.8899 16.0296 16.3674 16.2589 15.6771 16.466C14.1202 16.9331 12.2279 17.1666 10.0001 17.1666C7.77228 17.1666 5.87993 16.9331 4.32304 16.466C3.63276 16.2589 3.11025 16.0296 2.75552 15.778C2.52967 15.6178 2.41675 15.4973 2.41675 15.4166C2.41675 15.3359 2.52967 15.2155 2.75552 15.0553C3.11025 14.8037 3.63276 14.5743 4.32304 14.3672Z" fill="black"/>
<path fill-rule="evenodd" clip-rule="evenodd" d="M5.64604 2.6775C4.43751 3.85644 3.83325 5.28087 3.83325 6.95077C3.83325 9.9497 5.75204 12.7032 9.58961 15.2112C9.65061 15.2511 9.71603 15.2814 9.78586 15.3022C9.8557 15.323 9.92705 15.3334 9.99992 15.3334C10.0728 15.3334 10.1441 15.323 10.214 15.3022C10.2838 15.2814 10.3492 15.2511 10.4102 15.2112C14.2478 12.7032 16.1666 9.9497 16.1666 6.95077C16.1666 5.28087 15.5623 3.85644 14.3538 2.6775C13.1505 1.50362 11.6992 0.916687 9.99992 0.916687C8.30066 0.916687 6.84937 1.50362 5.64604 2.6775ZM9.99992 13.6811C6.88881 11.5507 5.33325 9.30721 5.33325 6.95077C5.33325 5.70235 5.78666 4.63584 6.69347 3.75122C7.60548 2.86153 8.70763 2.41669 9.99992 2.41669C11.2922 2.41669 12.3943 2.86153 13.3064 3.75122C14.2132 4.63584 14.6666 5.70235 14.6666 6.95077C14.6666 9.30721 13.111 11.5506 9.99992 13.6811Z" fill="black"/>
<path fill-rule="evenodd" clip-rule="evenodd" d="M7.99662 5.07987C7.44337 5.63311 7.16675 6.30093 7.16675 7.08333C7.16675 7.86573 7.44337 8.53355 7.99662 9.0868C8.54986 9.64005 9.21768 9.91667 10.0001 9.91667C10.7825 9.91667 11.4503 9.64005 12.0035 9.0868C12.5568 8.53355 12.8334 7.86573 12.8334 7.08333C12.8334 6.30093 12.5568 5.63311 12.0035 5.07987C11.4503 4.52662 10.7825 4.25 10.0001 4.25C9.21768 4.25 8.54986 4.52662 7.99662 5.07987ZM9.05728 8.02614C8.79692 7.76579 8.66675 7.45152 8.66675 7.08333C8.66675 6.71515 8.79692 6.40088 9.05728 6.14053C9.31763 5.88018 9.6319 5.75 10.0001 5.75C10.3683 5.75 10.6825 5.88018 10.9429 6.14053C11.2032 6.40088 11.3334 6.71515 11.3334 7.08333C11.3334 7.45152 11.2032 7.76579 10.9429 8.02614C10.6825 8.28649 10.3683 8.41667 10.0001 8.41667C9.6319 8.41667 9.31763 8.28649 9.05728 8.02614Z" fill="black"/>
</g>
</g>
<defs>
<clipPath id="clip0_7_115">
<rect width="20" height="20" fill="white"/>
</clipPath>
</defs>
</svg>
