<svg width="17" height="16" viewBox="0 0 17 16" fill="none" xmlns="http://www.w3.org/2000/svg">
<path d="M14.6667 0H2.66675C1.56218 0 0.666748 0.89543 0.666748 2V14C0.666748 15.1046 1.56218 16 2.66675 16H14.6667C15.7713 16 16.6667 15.1046 16.6667 14V2C16.6667 0.89543 15.7713 0 14.6667 0Z" fill="#FE4D00"/>
<path d="M8.22032 2.91058L6.99957 5.40232C6.92692 5.55061 6.78573 5.65347 6.62231 5.67717L3.83464 6.0814C3.42478 6.14083 3.26071 6.64425 3.55685 6.93375L5.57876 8.91045C5.69678 9.02583 5.75026 9.19203 5.72167 9.35458L5.2437 12.0729C5.17154 12.4833 5.60364 12.7967 5.97137 12.6007L8.43123 11.2893C8.57824 11.211 8.75462 11.2109 8.90163 11.2893L11.3637 12.6016C11.7312 12.7975 12.1631 12.4846 12.0915 12.0744L11.6166 9.35396C11.5883 9.19174 11.6417 9.02598 11.7594 8.91076L13.7789 6.9329C14.0745 6.6434 13.9107 6.14061 13.5012 6.08091L10.7319 5.6771C10.5695 5.65343 10.4291 5.55159 10.3562 5.40462L9.1172 2.90827C8.9329 2.53692 8.40271 2.53828 8.22032 2.91058Z" fill="white"/>
</svg>
