<?xml version="1.0" standalone="no"?><!DOCTYPE svg PUBLIC "-//W3C//DTD SVG 1.1//EN" "http://www.w3.org/Graphics/SVG/1.1/DTD/svg11.dtd"><svg t="1726109512689" class="icon" viewBox="0 0 1024 1024" version="1.1" xmlns="http://www.w3.org/2000/svg" p-id="17948" width="48" height="48" xmlns:xlink="http://www.w3.org/1999/xlink"><path d="M777.1 247.9C631.2 102 394.6 102 248.8 247.9s-145.9 382.4 0 528.3 382.4 145.9 528.3 0 145.9-382.5 0-528.3zM636 662.4c-6.3 6.3-16.5 6.3-22.8 0L512.9 562.1 412.7 662.4c-6.3 6.3-16.5 6.3-22.8 0l-27.3-27.3c-6.3-6.3-6.3-16.5 0-22.8L462.8 512 362.5 411.7c-6.3-6.3-6.3-16.5 0-22.8l27.3-27.3c6.3-6.3 16.5-6.3 22.8 0l100.3 100.3 100.3-100.3c6.3-6.3 16.5-6.3 22.8 0l27.3 27.3c6.3 6.3 6.3 16.5 0 22.8L563 512l100.3 100.3c6.3 6.3 6.3 16.5 0 22.8L636 662.4z" fill="#999999" p-id="17949"></path></svg>