<?xml version="1.0" encoding="utf-8"?>
<!-- Generator: Adobe Illustrator 23.0.1, SVG Export Plug-In . SVG Version: 6.00 Build 0)  -->
<svg version="1.1" id="图层_1" xmlns="http://www.w3.org/2000/svg" xmlns:xlink="http://www.w3.org/1999/xlink" x="0px" y="0px"
	 viewBox="0 0 47 47" style="enable-background:new 0 0 47 47;" xml:space="preserve">
<style type="text/css">
	.st0{fill:#F24A35;}
</style>
<path class="st0" d="M39.5,12.2L25.3,4c-1.1-0.6-2.4-0.6-3.5,0L7.5,12.2c-1.1,0.6-1.7,1.8-1.7,3v16.5c0,1.2,0.7,2.4,1.7,3L21.8,43
	c1.1,0.6,2.4,0.6,3.5,0l14.3-8.2c1.1-0.6,1.7-1.8,1.7-3V15.3C41.3,14,40.6,12.9,39.5,12.2z M36.6,17.4l-11.9,6.7V38
	c0,0.6-0.5,1.2-1.2,1.2c-0.6,0-1.2-0.5-1.2-1.2V24.1l-11.9-6.7c-0.6-0.3-0.8-1-0.4-1.6c0.3-0.6,1-0.8,1.6-0.4l11.9,6.7l11.9-6.7
	c0.6-0.3,1.3-0.1,1.6,0.4C37.4,16.4,37.2,17.1,36.6,17.4z"/>
</svg>
